<svg id="Capa_1" data-name="Capa 1" xmlns="http://www.w3.org/2000/svg" xmlns:xlink="http://www.w3.org/1999/xlink" viewBox="0 0 144.77 144.77"><defs><style>.cls-1{fill:none;}.cls-2{fill:#3bd0a6;}.cls-3{clip-path:url(#clip-path);}.cls-4{fill:#f1c9a5;}.cls-5{fill:#e4b692;}.cls-6{fill:#ddac8c;opacity:0.1;isolation:isolate;}.cls-7{fill:#005136;}</style><clipPath id="clip-path" transform="translate(0 0)"><circle class="cls-1" cx="72.39" cy="72.39" r="72.39"/></clipPath></defs><title>avatarMale</title><circle class="cls-2" cx="72.39" cy="72.39" r="72.39"/><g class="cls-3"><path class="cls-4" d="M107.05,116.94c-4.66-8.83-34.66-14.38-34.66-14.38s-30,5.55-34.67,14.38c-3.45,12.26-6.33,27.83-6.33,27.83h82S111.44,128.07,107.05,116.94Z" transform="translate(0 0)"/><path class="cls-5" d="M72.39,102.56s30,5.55,34.66,14.38c4.39,11.13,6.34,27.83,6.34,27.83h-41Z" transform="translate(0 0)"/><rect class="cls-4" x="64.22" y="84.61" width="16.33" height="27.34"/><rect class="cls-5" x="72.39" y="84.61" width="8.17" height="27.34"/><path class="cls-6" d="M64.22,97.27c1.47,4.22,7.4,6.64,11.75,6.64a14.7,14.7,0,0,0,4.58-.75V84.61H64.22Z" transform="translate(0 0)"/><path class="cls-4" d="M93.39,67.36c0-17.08-9.4-26.79-21-26.79s-21,9.71-21,26.79c0,23,9.4,30.91,21,30.91S93.39,89.37,93.39,67.36Z" transform="translate(0 0)"/><path class="cls-5" d="M90.19,79.2c-3.81-.4-6.38-4.5-5.73-9.16s4.24-8.12,8.05-7.72,6.37,4.49,5.73,9.15S94,79.59,90.19,79.2Z" transform="translate(0 0)"/><path class="cls-4" d="M46.69,71.47c-.65-4.66,1.92-8.76,5.72-9.15s7.42,3.06,8.06,7.72-1.93,8.76-5.74,9.16S47.32,76.13,46.69,71.47Z" transform="translate(0 0)"/><path class="cls-5" d="M93.39,67.36c0-17.08-9.4-26.79-21-26.79v57.7C84,98.27,93.39,89.37,93.39,67.36Z" transform="translate(0 0)"/><path class="cls-7" d="M52.19,73s2.89-5.55,4.12-16.22c8.71,8.28,19,9.61,32.54,0,.34,7.78,2.61,12.63,5.28,16.22C95.77,59.57,99.4,53,98.18,45.88,89.14,47.38,86,40,72.39,40s-16.59,7.15-25,6.51C47.37,54.85,51.39,59.32,52.19,73Z" transform="translate(0 0)"/><path class="cls-7" d="M107.05,116.94c-3-5.66-16.37-10-25.61-12.33a9.08,9.08,0,0,1-18.11,0c-9.23,2.36-22.62,6.67-25.61,12.33-3.45,12.26-6.33,27.83-6.33,27.83h82S111.44,128.07,107.05,116.94Z" transform="translate(0 0)"/></g></svg>