<svg id="Capa_1" data-name="Capa 1" xmlns="http://www.w3.org/2000/svg" xmlns:xlink="http://www.w3.org/1999/xlink" viewBox="0 0 144.77 144.77"><defs><style>.cls-1{fill:none;}.cls-2{fill:#3bd0a6;}.cls-3{clip-path:url(#clip-path);}.cls-4{fill:#005136;}.cls-5{fill:#f1c9a5;}.cls-6{fill:#e4b692;}.cls-7{fill:#ddac8c;opacity:0.1;isolation:isolate;}.cls-8{fill:#f88c00;}</style><clipPath id="clip-path" transform="translate(0 0)"><circle class="cls-1" cx="72.39" cy="72.39" r="72.39"/></clipPath></defs><title>avatarFemale</title><circle class="cls-2" cx="72.39" cy="72.39" r="72.39"/><g class="cls-3"><path class="cls-4" d="M45.23,75.06c0,11.8-6.47,12.11-6,19.93.51,8.66,7.28,8.68,7.28,14.63s-6.23,12.62-.71,19H72.4V56.44Z" transform="translate(0 0)"/><path class="cls-4" d="M99.54,74.66c0,11.81,6.48,12.12,6,19.94-.52,8.66-7.28,8.68-7.28,14.63s6.22,12.62.71,19H72.38V56.05Z" transform="translate(0 0)"/><ellipse class="cls-4" cx="72.39" cy="62.72" rx="29.64" ry="29.83"/><path class="cls-5" d="M107.05,116.94c-4.66-8.83-34.66-14.38-34.66-14.38s-30,5.55-34.67,14.38c-3.45,12.26-6.33,27.83-6.33,27.83h82S111.44,128.07,107.05,116.94Z" transform="translate(0 0)"/><path class="cls-6" d="M72.39,102.56s30,5.55,34.66,14.38c4.39,11.13,6.34,27.83,6.34,27.83h-41Z" transform="translate(0 0)"/><rect class="cls-5" x="64.22" y="84.61" width="16.33" height="27.34"/><rect class="cls-6" x="72.39" y="84.61" width="8.17" height="27.34"/><path class="cls-7" d="M64.22,97.27c1.47,4.22,7.4,6.64,11.75,6.64a14.7,14.7,0,0,0,4.58-.75V84.61H64.22Z" transform="translate(0 0)"/><path class="cls-5" d="M93.39,67.36c0-17.08-9.4-26.79-21-26.79s-21,9.71-21,26.79,9.4,30.91,21,30.91S93.39,84.43,93.39,67.36Z" transform="translate(0 0)"/><path class="cls-6" d="M90.19,79.19c-3.81-.42-6.38-4.78-5.73-9.73s4.24-8.63,8.05-8.21S98.88,66,98.24,71,94,79.61,90.19,79.19Z" transform="translate(0 0)"/><path class="cls-5" d="M46.69,71c-.65-5,1.92-9.32,5.72-9.74s7.42,3.26,8.06,8.21-1.93,9.31-5.74,9.73S47.32,75.94,46.69,71Z" transform="translate(0 0)"/><path class="cls-6" d="M93.39,67.36c0-17.08-9.4-26.79-21-26.79v57.7C84,98.27,93.39,84.43,93.39,67.36Z" transform="translate(0 0)"/><path class="cls-4" d="M95.12,65.43v-.15c0-13.25-9-27.22-21.51-27.22S49.67,52,49.67,65.28c0,0,0,.1,0,.15Z" transform="translate(0 0)"/><path class="cls-8" d="M113.39,144.77s-2-16.7-6.34-27.83c-2.56-4.85-12.73-8.7-21.4-11.19L72.36,116.18,58.53,105.92c-8.53,2.5-18.31,6.29-20.81,11-3.45,12.26-6.33,27.83-6.33,27.83h82Z" transform="translate(0 0)"/></g></svg>